<?xml version="1.0" standalone="no"?><!DOCTYPE svg PUBLIC "-//W3C//DTD SVG 1.1//EN" "http://www.w3.org/Graphics/SVG/1.1/DTD/svg11.dtd"><svg t="1508153388864" class="icon" style="" viewBox="0 0 1024 1024" version="1.1" xmlns="http://www.w3.org/2000/svg" p-id="1655" xmlns:xlink="http://www.w3.org/1999/xlink" width="200" height="200"><defs><style type="text/css"></style></defs><path d="M911.82 247.133c-52.449-79.467-122.868-138.593-210.078-175.964-86.393-37.023-176.923-48.066-270.035-31.995-106.883 18.446-198.8 66.595-271.837 146.38-99.959 109.193-140.878 239.564-123.485 386.303 14.607 123.231 69.953 226.909 165.482 306.547 102.875 85.77 222.325 123.081 356.254 111.555 221.577-19.072 433.831-213.407 433.379-477.543 0.334-96.49-26.632-184.914-79.68-265.284zM792.691 756.741c-63.328 72.018-142.716 115.238-237.899 126.247-108.799 12.581-206.151-18.207-288.157-89.996-89.257-78.135-127.283-177.121-128.297-282.003 3.528-212.084 163.846-362.587 355.979-371.652 102.321-4.83 193.225 27.927 268.771 96.703 66.9 60.906 108.653 137.518 118.943 228.186 12.46 109.808-15.51 208.553-89.341 292.517z" fill="#00AAFF" p-id="1656"></path><path d="M713.263 385.685c14.663-14.607 18.811-33.185 13.375-52.878-10.99-39.818-60.064-49.28-87.085-23.912-19.746 18.536-38.459 38.173-57.568 57.391-23.38 23.519-46.684 47.115-71.149 71.814-15.328-16.689-29.271-32.677-44.079-47.816-25.078-25.643-50.38-51.085-76.234-75.938-12.233-11.759-26.197-19.624-44.88-18.938-41.6 1.529-61.62 43.271-44.969 75.528 8.243 15.964 23.31 28.665 36.281 41.87 32.513 33.11 65.59 65.661 97.668 97.67-13.688 14.194-26.743 27.868-39.953 41.389-27.458 28.104-55.161 55.977-82.434 84.254-13.436 13.933-20.311 29.541-15.526 50.185 4.943 21.332 16.558 35.465 37 40.897 19.464 5.175 37.268 0.81 52.141-14.326 39.010-39.71 78.437-79.015 117.743-118.441 2.301-2.31 4.964-4.263 8.070-6.895 35.526 35.605 70.298 70.773 105.474 105.533 11.871 11.73 22.126 25.176 38.526 32.057 34.568 14.5 70.436-11.796 72.683-45.981 1.297-19.737-7.519-34.538-20.393-47.544-37.189-37.582-74.718-74.827-112.087-112.229-3.045-3.050-5.899-6.292-10.401-11.113 14.198-13.235 27.467-25.282 40.379-37.703 29.272-28.154 58.645-56.213 87.417-84.871z" fill="#00AAFF" p-id="1657"></path></svg>